<svg width="96" height="122" viewBox="0 0 96 122" fill="rgb(44, 141, 163)" xmlns="http://www.w3.org/2000/svg">
<path d="M36.508 50.3493L32.476 37.5333H14.62L10.66 50.3493H1.01199L17.86 0.093277H29.668L46.372 50.3493H36.508ZM23.692 8.73328H23.332L16.924 29.3973H30.172L23.692 8.73328Z" fill="#001934"/>
<path d="M69.979 27.5973L63.283 35.5173V50.3493H53.779V0.093277H63.283V24.8613H63.643L70.771 15.4293L83.227 0.093277H94.171L76.675 21.0453L95.611 50.3493H84.307L69.979 27.5973Z" fill="#001934"/>
<path d="M34.944 100.875H34.656C34.224 103.323 32.856 105.387 30.552 107.067C28.296 108.699 25.272 109.515 21.48 109.515C18.504 109.515 15.744 108.963 13.2 107.859C10.704 106.755 8.52 105.123 6.648 102.963C4.824 100.755 3.384 98.0427 2.328 94.8267C1.272 91.6107 0.744003 87.8907 0.744003 83.6667C0.744003 79.4427 1.272 75.7227 2.328 72.5067C3.432 69.2427 4.968 66.5067 6.936 64.2987C8.904 62.0907 11.256 60.4107 13.992 59.2587C16.728 58.1067 19.776 57.5307 23.136 57.5307C27.648 57.5307 31.488 58.5147 34.656 60.4827C37.824 62.4507 40.32 65.2827 42.144 68.9787L34.44 73.5147C33.528 71.3547 32.16 69.5547 30.336 68.1147C28.56 66.6747 26.16 65.9547 23.136 65.9547C19.392 65.9547 16.392 67.1067 14.136 69.4107C11.928 71.6667 10.824 75.0267 10.824 79.4907V87.5547C10.824 91.9707 11.952 95.3307 14.208 97.6347C16.464 99.9387 19.488 101.091 23.28 101.091C24.768 101.091 26.16 100.923 27.456 100.587C28.752 100.203 29.88 99.6507 30.84 98.9307C31.8 98.2107 32.568 97.3227 33.144 96.2667C33.72 95.2107 34.008 93.9627 34.008 92.5227V89.2827H24.144V81.2907H43.152V108.651H34.944V100.875Z" fill="#001934"/>
<path d="M86.5618 121.467H79.5778C76.2658 121.467 73.8178 120.651 72.2338 119.019C70.6978 117.435 69.9298 115.179 69.9298 112.251V109.227C64.4578 108.411 60.0898 105.819 56.8258 101.451C53.6098 97.0827 52.0018 91.1067 52.0018 83.5227C52.0018 79.2987 52.5298 75.5787 53.5858 72.3627C54.6418 69.0987 56.1058 66.3627 57.9778 64.1547C59.8978 61.9467 62.2018 60.2907 64.8898 59.1867C67.5778 58.0827 70.5778 57.5307 73.8898 57.5307C77.2018 57.5307 80.2018 58.0827 82.8898 59.1867C85.5778 60.2907 87.8818 61.9467 89.8018 64.1547C91.7218 66.3627 93.1858 69.0987 94.1938 72.3627C95.2498 75.5787 95.7778 79.2987 95.7778 83.5227C95.7778 90.9627 94.2658 96.8187 91.2418 101.091C88.2178 105.363 84.0898 108.003 78.8578 109.011V113.691H86.5618V121.467ZM73.8898 101.091C77.4898 101.091 80.3458 99.8907 82.4578 97.4907C84.6178 95.0907 85.6978 91.7307 85.6978 87.4107V79.6347C85.6978 75.3147 84.6178 71.9547 82.4578 69.5547C80.3458 67.1547 77.4898 65.9547 73.8898 65.9547C70.2898 65.9547 67.4098 67.1547 65.2498 69.5547C63.1378 71.9547 62.0818 75.3147 62.0818 79.6347V87.4107C62.0818 91.7307 63.1378 95.0907 65.2498 97.4907C67.4098 99.8907 70.2898 101.091 73.8898 101.091Z" fill="#001934"/>
</svg>
